<?xml version="1.0" encoding="iso-8859-1"?>
<!-- Generator: Adobe Illustrator 19.0.0, SVG Export Plug-In . SVG Version: 6.00 Build 0)  -->
<svg version="1.1" id="Capa_1" xmlns="http://www.w3.org/2000/svg" xmlns:xlink="http://www.w3.org/1999/xlink" x="0px" y="0px"
	 viewBox="0 0 394.4 394.4" style="enable-background:new 0 0 394.4 394.4;" xml:space="preserve">
<g>
	<g>
		<path d="M352.8,0H72C61.6,0,52.8,8.8,52.8,19.2v35.2H29.6c-4.8,0-8,3.2-8,8c0,4.8,3.2,8,8,8h23.2v44H29.6c-4.8,0-8,3.2-8,8
			c0,4.8,3.2,8,8,8h23.2v44H29.6c-4.8,0-8,3.2-8,8c0,4.8,3.2,8,8,8h23.2v44H29.6c-4.8,0-8,3.2-8,8s3.2,8,8,8h23.2v44H29.6
			c-4.8,0-8,3.2-8,8s3.2,8,8,8h23.2v64.8c0,10.4,8.8,19.2,19.2,19.2h281.6c10.4,0,19.2-8.8,19.2-19.2V18.4C372,8,363.2,0,352.8,0z
			 M356.8,375.2H356c0,1.6-1.6,3.2-3.2,3.2H72c-1.6,0-3.2-1.6-3.2-3.2v-64.8H92c4.8,0,8-3.2,8-8s-3.2-8-8-8H68.8v-44H92
			c4.8,0,8-3.2,8-8s-3.2-8-8-8H68.8v-44H92c4.8,0,8-3.2,8-8s-3.2-8-8-8H68.8v-44H92c4.8,0,8-3.2,8-8s-3.2-8-8-8H68.8v-44H92
			c4.8,0,8-3.2,8-8s-3.2-8-8-8H68.8v-36c0-1.6,1.6-3.2,3.2-3.2h281.6c1.6,0,3.2,1.6,3.2,3.2V375.2z"/>
	</g>
</g>
<g>
	<g>
		<path d="M294.4,69.6H164.8c-4.8,0-8,3.2-8,8s3.2,8,8,8h129.6c4.8,0,8-3.2,8-8S299.2,69.6,294.4,69.6z"/>
	</g>
</g>
<g>
	<g>
		<path d="M294.4,128H164.8c-4.8,0-8,3.2-8,8c0,4.8,3.2,8,8,8h129.6c4.8,0,8-3.2,8-8C302.4,131.2,299.2,128,294.4,128z"/>
	</g>
</g>
<g>
</g>
<g>
</g>
<g>
</g>
<g>
</g>
<g>
</g>
<g>
</g>
<g>
</g>
<g>
</g>
<g>
</g>
<g>
</g>
<g>
</g>
<g>
</g>
<g>
</g>
<g>
</g>
<g>
</g>
</svg>
